<svg width="107" height="205" viewBox="0 0 107 205" fill="none" xmlns="http://www.w3.org/2000/svg">
<path d="M1.86911 204.286H106.182V163.335H46.5075L50.6645 158.517L78.7787 125.93C83.6355 120.333 88.0837 114.45 92.1262 108.281C96.0971 102.223 99.2671 95.6071 101.645 88.4278C103.983 81.3666 105.156 73.3459 105.156 64.3399C105.156 51.5447 102.966 40.4175 98.5932 30.8931C94.2052 21.3361 88.1495 13.9369 80.39 8.66851C72.5847 3.37022 63.7007 0.714294 53.7162 0.714294C43.746 0.714294 34.9441 3.45979 27.2858 8.93858C19.6351 14.4106 13.4859 21.9373 8.81343 31.5404C4.52561 40.3524 1.76029 50.2731 0.515564 61.3324H33.0226C34.2024 56.5553 36.2662 52.4839 39.188 49.1589C42.5671 45.3127 47.0888 43.4263 52.692 43.4263C58.3524 43.4263 62.7643 45.5122 65.8265 49.7791C68.8629 54.0134 70.3997 59.3117 70.3997 65.5138C70.3997 71.1473 69.2925 76.2814 67.0894 80.8468C64.997 85.1815 61.3745 90.5151 56.2028 96.9154L1.86911 164.202V204.286Z" fill="black" stroke="#595959" stroke-width="0.025974"/>
</svg>
