<svg width="109" height="205" viewBox="0 0 109 205" fill="none" xmlns="http://www.w3.org/2000/svg">
<path d="M98.6294 41.6647V0.714294H10.7597L2.83697 120.627H33.8244C35.8719 117.422 38.4692 114.854 41.5972 112.926C45.0193 110.817 48.7974 109.766 52.9172 109.766C58.8802 109.766 63.8162 112.134 67.6344 116.898C71.5108 121.735 73.4609 128.257 73.4609 136.258C73.4609 144.456 71.5098 151.037 67.6182 155.783C63.8009 160.438 58.8726 162.748 52.9172 162.748C48.8136 162.748 45.1186 161.806 41.8435 159.904C38.8749 158.184 36.52 155.906 34.8104 153.062H0.315063C3.4727 168.795 9.65243 181.05 18.8905 189.927C28.8369 199.487 41.4063 204.286 56.6428 204.286C66.3028 204.286 75.0598 201.585 82.9386 196.189C90.764 190.83 96.9809 183 101.621 172.663C106.245 162.362 108.568 149.659 108.568 134.496C108.568 122.035 106.647 110.998 102.81 101.34C98.9731 91.6795 93.7288 84.1039 87.0508 78.5736C80.3785 73.0473 72.8767 70.2828 64.5121 70.2828C53.9548 70.2828 45.3267 75.0097 38.516 84.4799L34.8009 89.6451L37.9251 41.6647H98.6294Z" fill="black" stroke="#595959" stroke-width="0.025974"/>
</svg>
