<svg width="108" height="205" viewBox="0 0 108 205" fill="none" xmlns="http://www.w3.org/2000/svg">
<path d="M1.95407 54.4259H33.686C34.9269 50.7589 37.0699 47.7121 40.0567 45.3059C43.4491 42.5713 47.5308 41.2209 52.2729 41.2209C57.5754 41.2209 61.952 42.7274 65.3722 45.8027C69.0367 49.0964 70.8913 54.3296 70.8913 61.1587C70.8913 67.3378 69.1226 72.5519 65.6671 76.603C62.2813 80.574 57.8589 82.5337 52.4743 82.5337H37.8746V121.03H53.8823C59.201 121.03 63.6903 122.696 67.3108 126.067C71.1481 129.64 73.1059 134.998 73.1059 141.831C73.1059 149.574 71.2512 155.369 67.5189 158.88C64.0272 162.164 59.6038 163.779 54.2861 163.779C49.3177 163.779 44.9124 162.503 41.0876 159.93C37.5577 157.555 35.0548 154.133 33.6564 149.712H0.542297C2.54302 166.119 7.95052 179.094 16.7963 188.771C26.231 199.095 38.9761 204.286 55.0908 204.286C65.3101 204.286 74.3487 201.866 82.2189 197.043C90.0319 192.255 96.1314 185.526 100.554 176.843C104.94 168.231 107.136 157.927 107.136 145.85C107.136 136.415 105.294 127.537 101.59 119.16C97.9489 110.922 92.3505 105.091 84.7113 101.642L79.4994 99.2877L84.6091 96.5191C90.9654 93.0747 95.7458 87.9175 99.0065 81.0314C102.282 74.1154 103.915 66.3661 103.915 57.7143C103.915 46.2179 101.756 36.3013 97.4363 27.8775C93.0702 19.3614 87.2227 12.7182 79.865 7.93294C72.4702 3.12322 64.2859 0.714294 55.2922 0.714294C40.3984 0.714294 28.4007 5.89315 19.2323 16.2061C10.6414 25.8676 4.89025 38.5799 1.95407 54.4259Z" fill="black" stroke="#595959" stroke-width="0.025974"/>
</svg>
