<svg width="111" height="205" viewBox="0 0 111 205" fill="none" xmlns="http://www.w3.org/2000/svg">
<path d="M74.7101 49.832H108.645C105.51 34.9781 100.09 23.2687 92.372 14.6304C84.1038 5.37472 72.8478 0.714294 58.543 0.714294C47.2898 0.714294 37.3568 4.59572 28.6962 12.3545C20.0442 20.1065 13.2345 31.4767 8.2575 46.5247C3.26045 61.6405 0.75 80.0054 0.75 101.638C0.75 121.203 2.99891 138.748 7.48814 154.293C11.943 169.721 18.5351 181.897 27.2797 190.876C35.9765 199.807 46.783 204.286 59.7562 204.286C66.2241 204.302 72.6494 202.799 78.7726 199.837C84.8386 196.924 90.4656 192.416 95.3607 186.548C100.28 180.671 104.195 173.465 107.115 164.906C110.019 156.392 111.477 146.508 111.477 135.227C111.477 123.268 109.509 112.65 105.576 103.321C101.63 93.9609 96.3716 86.6377 89.7785 81.3191C83.1874 76.0032 75.9567 73.3472 68.0531 73.3472C54.1683 73.3472 43.8649 79.5222 36.9645 91.8451L33.1435 98.6715L33.5663 89.9681C34.4006 72.8193 36.9645 60.3146 41.363 52.4377C45.8399 44.4211 51.7533 40.3591 58.9467 40.3591C63.0131 40.3591 66.417 41.3553 69.146 43.3992C71.4799 45.1458 73.3422 47.2901 74.7101 49.832ZM58.6002 164.929C53.04 164.929 48.1938 162.358 44.1522 157.254C40.0515 152.074 37.9773 145.39 37.9773 137.392C37.9773 129.411 40.0429 122.648 44.1245 117.282C48.1661 111.966 53.0228 109.286 58.5993 109.286C64.1805 109.286 69.0095 111.973 72.9881 117.3C76.9972 122.666 79.0227 129.422 79.0227 137.392C79.0227 145.379 76.9886 152.056 72.9614 157.236C68.9838 162.353 64.1662 164.929 58.6002 164.929Z" fill="black" stroke="#595959" stroke-width="0.025974"/>
</svg>
