<svg width="22" height="20" viewBox="0 0 22 20" fill="none" xmlns="http://www.w3.org/2000/svg">
<path fill-rule="evenodd" clip-rule="evenodd" d="M12 2.07092C15.3922 2.55624 17.9998 5.4736 17.9998 9V13.2538C19.0486 13.3307 20.0848 13.4245 21.107 13.5347L20.8926 15.5232C17.7219 15.1813 14.409 15 10.9998 15C7.59056 15 4.27764 15.1813 1.10699 15.5232L0.892578 13.5347C1.91473 13.4245 2.95095 13.3307 3.99978 13.2538V9C3.99978 5.47345 6.6076 2.55599 10 2.07086V0H12V2.07092ZM15.9998 13.1287V9C15.9998 6.23858 13.7612 4 10.9998 4C8.23836 4 5.99978 6.23858 5.99978 9V13.1287C7.64041 13.0437 9.3089 13 10.9998 13C12.6907 13 14.3591 13.0437 15.9998 13.1287ZM7.62568 17.3712C7.6621 18.5173 9.1509 20 10.9993 20C12.8477 20 14.3365 18.5173 14.373 17.3712C14.38 17.1489 14.1756 17 13.9531 17H8.04555C7.82308 17 7.61862 17.1489 7.62568 17.3712Z" fill="white"/>
</svg>
